# This file uses centimeters as units for non-parametric coordinates.

g default
v -2.513293 6.893486 2.511255
v 2.512975 6.893486 2.511255
v -2.513293 11.919754 2.511255
v 2.512975 11.919754 2.511255
v -2.513293 11.919754 -2.515013
v 2.512975 11.919754 -2.515013
v -2.513293 6.893486 -2.515013
v 2.512975 6.893486 -2.515013
vt 0.326610 0.994439
vt 0.006316 0.994627
vt 0.006129 0.674333
vt 0.326423 0.674145
vt 0.656598 0.341381
vt 0.656598 0.661675
vt 0.336304 0.661675
vt 0.336304 0.341381
vt 0.672727 0.673468
vt 0.993020 0.673499
vt 0.992988 0.993793
vt 0.672695 0.993762
vt 0.665665 0.660639
vt 0.665665 0.340346
vt 0.985959 0.340346
vt 0.985959 0.660639
vt 0.661030 0.326585
vt 0.340738 0.327142
vt 0.340181 0.006849
vt 0.660474 0.006293
vt 0.990654 0.327864
vt 0.670360 0.328056
vt 0.670169 0.007762
vt 0.990463 0.007570
vn 0.000000 0.000000 1.000000
vn 0.000000 0.000000 1.000000
vn 0.000000 0.000000 1.000000
vn 0.000000 0.000000 1.000000
vn 0.000000 1.000000 0.000000
vn 0.000000 1.000000 0.000000
vn 0.000000 1.000000 0.000000
vn 0.000000 1.000000 0.000000
vn 0.000000 0.000000 -1.000000
vn 0.000000 0.000000 -1.000000
vn 0.000000 0.000000 -1.000000
vn 0.000000 0.000000 -1.000000
vn 0.000000 -1.000000 0.000000
vn 0.000000 -1.000000 0.000000
vn 0.000000 -1.000000 0.000000
vn 0.000000 -1.000000 0.000000
vn 1.000000 0.000000 0.000000
vn 1.000000 0.000000 0.000000
vn 1.000000 0.000000 0.000000
vn 1.000000 0.000000 0.000000
vn -1.000000 0.000000 0.000000
vn -1.000000 0.000000 0.000000
vn -1.000000 0.000000 0.000000
vn -1.000000 0.000000 0.000000
s off
g box:pCube59
f 1/1/1 2/2/2 4/3/3 3/4/4
f 3/5/5 4/6/6 6/7/7 5/8/8
f 5/9/9 6/10/10 8/11/11 7/12/12
f 7/13/13 8/14/14 2/15/15 1/16/16
f 2/17/17 8/18/18 6/19/19 4/20/20
f 7/21/21 1/22/22 3/23/23 5/24/24
